<?xml version="1.0" standalone="no"?>
<!DOCTYPE svg PUBLIC "-//W3C//DTD SVG 20010904//EN"
 "http://www.w3.org/TR/2001/REC-SVG-20010904/DTD/svg10.dtd">
<svg version="1.0" xmlns="http://www.w3.org/2000/svg"
 width="307.000000pt" height="84.000000pt" viewBox="0 0 307.000000 84.000000"
 preserveAspectRatio="xMidYMid meet">

<g transform="translate(0.000000,84.000000) scale(0.100000,-0.100000)"
fill="#7f0405" stroke="none">
<path d="M202 650 c-23 -11 -45 -26 -48 -35 -10 -25 -27 -17 -20 10 6 23 3 25
-24 25 l-30 0 2 -192 3 -193 25 0 25 0 5 148 5 149 33 29 c25 23 42 29 77 29
71 0 79 -21 83 -207 4 -141 5 -153 22 -153 17 0 19 12 22 151 l3 151 33 29
c25 23 42 29 76 29 74 0 80 -15 84 -201 3 -149 5 -159 23 -159 17 0 19 8 20
88 1 48 3 78 6 67 23 -104 83 -158 178 -158 86 0 136 37 166 125 l18 53 1 -87
c0 -81 2 -88 20 -88 19 0 20 7 20 130 0 144 11 185 60 214 43 25 106 21 135
-9 24 -24 25 -28 25 -180 l0 -155 26 0 27 0 -5 70 c-5 71 4 95 16 39 8 -42 64
-95 114 -108 53 -15 108 -1 153 36 l32 27 -5 -53 c-7 -66 -33 -102 -87 -120
-55 -17 -107 -7 -143 30 -29 29 -68 39 -68 18 0 -6 15 -26 33 -44 58 -58 162
-69 234 -25 56 34 67 62 72 178 l3 105 27 -54 c30 -60 60 -86 117 -99 65 -15
112 -2 160 45 24 23 44 49 44 58 0 9 5 17 10 17 6 0 10 -6 10 -14 0 -21 48
-74 83 -93 40 -20 124 -20 164 0 34 18 73 62 73 83 0 26 15 14 31 -25 22 -52
66 -75 140 -75 96 1 155 52 145 123 -8 51 -31 69 -125 97 -96 29 -121 46 -121
81 0 39 34 63 88 63 53 0 88 -19 102 -56 13 -33 54 -34 45 -1 -20 64 -72 100
-146 101 -56 0 -113 -33 -127 -73 -25 -72 25 -134 117 -147 25 -3 62 -13 81
-23 29 -13 36 -22 38 -52 4 -45 -22 -70 -80 -76 -52 -5 -86 11 -113 54 -11 17
-29 33 -39 35 -17 3 -20 10 -17 59 5 116 -35 183 -129 214 -42 14 -56 15 -87
4 -57 -18 -93 -48 -114 -93 l-18 -40 -11 29 c-17 46 -58 83 -112 101 -44 14
-52 14 -96 0 -57 -19 -93 -54 -121 -116 l-20 -45 0 78 c-1 70 -3 77 -21 77
-16 0 -20 -7 -20 -32 l0 -32 -27 26 c-16 15 -47 34 -70 43 -39 16 -46 16 -92
0 -56 -18 -99 -61 -108 -106 -7 -35 -23 -28 -23 10 0 39 -31 75 -81 95 -51 21
-84 15 -138 -25 l-41 -29 0 25 c0 18 -5 25 -20 25 -18 0 -20 -7 -21 -82 l-1
-83 -15 48 c-37 122 -173 168 -277 94 -30 -21 -65 -86 -67 -127 -1 -14 -5 1
-9 32 -9 71 -31 105 -78 125 -31 13 -42 13 -76 2 -23 -7 -53 -26 -67 -41 l-27
-28 -17 26 c-16 25 -71 55 -97 53 -7 0 -32 -9 -56 -19z m694 -64 c67 -77 51
-228 -29 -276 -59 -36 -125 -19 -169 42 -18 26 -23 46 -23 98 0 122 45 174
144 167 44 -3 59 -9 77 -31z m645 18 c59 -30 88 -150 55 -228 -41 -99 -165
-113 -223 -25 -52 80 -30 223 39 257 34 16 95 14 129 -4z m374 -6 c36 -28 55
-76 55 -138 0 -92 -46 -158 -117 -166 -79 -10 -143 52 -147 143 -4 72 12 119
51 153 43 38 115 42 158 8z m335 7 c43 -22 64 -69 64 -145 0 -99 -36 -152
-112 -166 -82 -16 -152 59 -152 162 0 60 34 133 70 151 34 17 95 16 130 -2z"/>
<path d="M2791 657 c-52 -16 -107 -74 -121 -127 -15 -56 -6 -152 18 -194 65
-112 239 -108 298 6 18 36 18 38 -9 38 -13 0 -26 -9 -32 -22 -17 -39 -75 -70
-118 -65 -68 9 -110 53 -118 122 l-4 30 158 3 c143 2 157 4 157 20 0 10 -4 22
-8 28 -5 5 -14 28 -21 51 -13 47 -56 92 -103 110 -40 14 -53 14 -97 0z m103
-47 c31 -12 55 -47 63 -94 l6 -36 -127 0 c-120 0 -126 1 -126 20 0 30 26 75
56 99 29 23 85 28 128 11z"/>
</g>
</svg>
