<svg id="visual" viewBox="0 0 1920 1080" width="1920" height="1080" xmlns="http://www.w3.org/2000/svg" xmlns:xlink="http://www.w3.org/1999/xlink" version="1.1"><rect x="0" y="0" width="1920" height="1080" fill="#131219"></rect><path d="M0 520L53.3 548.7C106.7 577.3 213.3 634.7 320 624.3C426.7 614 533.3 536 640 484.3C746.7 432.7 853.3 407.3 960 440.8C1066.7 474.3 1173.3 566.7 1280 605.7C1386.7 644.7 1493.3 630.3 1600 643.8C1706.7 657.3 1813.3 698.7 1866.7 719.3L1920 740L1920 1081L1866.7 1081C1813.3 1081 1706.7 1081 1600 1081C1493.3 1081 1386.7 1081 1280 1081C1173.3 1081 1066.7 1081 960 1081C853.3 1081 746.7 1081 640 1081C533.3 1081 426.7 1081 320 1081C213.3 1081 106.7 1081 53.3 1081L0 1081Z" fill="#54437a" stroke-linecap="round" stroke-linejoin="miter"></path></svg>